<?xml version="1.0" encoding="UTF-8"?><svg id="Layer_2" xmlns="http://www.w3.org/2000/svg" width="110" height="39.0162" viewBox="0 0 110 39.0162"><g id="Layer_1-2"><g><rect width="110" height="12" style="fill:#f47b20;"/><g><g><path d="M4.1409,33.4359h-1.7211v4.2475h-.6404v-4.2475H.0581v-.5696H4.1409v.5696Z" style="fill:#4a4453;"/><path d="M6.4068,34.733h-.0323c-.0908-.0213-.1789-.0371-.2638-.0468s-.1861-.0148-.3023-.0148c-.1878,0-.3687,.0416-.5434,.1249-.1747,.0829-.3433,.1902-.5049,.3216v2.5655h-.6081v-3.6136h.6081v.5338c.2415-.194,.4547-.3316,.6391-.4124s.3725-.1214,.5644-.1214c.1056,0,.1823,.0028,.2298,.0083,.0475,.0052,.1187,.0155,.2136,.0306v.6243Z" style="fill:#4a4453;"/><path d="M9.7308,37.6834h-.6054v-.3849c-.0537,.0365-.1266,.0877-.2181,.1537-.0918,.0657-.1809,.118-.2669,.1568-.1015,.0495-.2181,.0908-.3495,.1245-.1314,.0334-.2858,.0502-.4626,.0502-.3257,0-.6016-.108-.8279-.3237-.2267-.2157-.3398-.4905-.3398-.8248,0-.2741,.0585-.4956,.1761-.6649s.2855-.3027,.5032-.3997c.2198-.097,.4839-.1627,.7925-.1974,.3085-.0344,.6394-.0602,.993-.0774v-.0939c0-.1379-.0241-.2525-.0726-.3429s-.118-.1617-.2088-.2136c-.086-.0495-.1899-.0829-.3102-.1001-.1211-.0172-.247-.0261-.3787-.0261-.1596,0-.3374,.0213-.5338,.0633s-.399,.1028-.6081,.1826h-.0323v-.6177c.1187-.0323,.29-.0681,.5142-.107s.4454-.0581,.6631-.0581c.2545,0,.476,.021,.6652,.0629,.1885,.0423,.3519,.1138,.4898,.2153,.1362,.0991,.2394,.2277,.3106,.3849,.0712,.1575,.107,.3526,.107,.5858v2.452Zm-.6054-.8898v-1.0061c-.185,.011-.4038,.0272-.6549,.0485-.2511,.0217-.4502,.053-.5968,.0939-.1747,.0499-.3161,.1269-.4241,.2315-.1077,.1046-.1617,.2483-.1617,.4317,0,.2071,.0626,.3629,.1878,.4674,.1252,.1049,.3157,.1572,.5723,.1572,.2139,0,.409-.0416,.5858-.1249,.1768-.0829,.3409-.1826,.4915-.2992Z" style="fill:#4a4453;"/><path d="M13.9827,37.6834h-.6081v-2.0575c0-.1661-.0096-.3219-.0289-.4674-.0196-.1455-.055-.2593-.107-.3412-.054-.0908-.1317-.1582-.2329-.2022-.1015-.0444-.2332-.0664-.3949-.0664-.1658,0-.3395,.0409-.5207,.1228-.1809,.0822-.355,.1868-.5207,.314v2.698h-.6081v-3.6136h.6081v.401c.1899-.1572,.3859-.2803,.5888-.3687,.2026-.0884,.4107-.1328,.6243-.1328,.3904,0,.6879,.1176,.8929,.3529,.2047,.2349,.3072,.5737,.3072,1.0157v2.3454Z" style="fill:#4a4453;"/><path d="M17.7951,36.6415c0,.3302-.1362,.6009-.4093,.8121-.2728,.2115-.6453,.3171-1.1178,.3171-.2673,0-.5125-.032-.7357-.0956-.2232-.0633-.4103-.1331-.5613-.2084v-.6827h.0323c.1919,.1445,.4055,.2593,.6408,.3446,.2349,.0853,.4602,.1276,.6759,.1276,.2673,0,.4767-.043,.6277-.1293,.1507-.086,.2263-.2222,.2263-.4076,0-.1424-.0409-.2501-.1228-.3233-.0822-.0736-.2394-.1359-.4722-.1878-.0863-.0193-.1991-.042-.3381-.0678-.1393-.0261-.2659-.054-.3801-.0843-.3171-.0843-.5421-.2074-.6748-.3704-.1324-.1627-.1988-.3629-.1988-.6002,0-.1486,.031-.2889,.0922-.4203,.0616-.1317,.1548-.2494,.28-.3529,.1207-.1011,.2745-.1816,.4609-.2408,.1864-.0595,.3952-.0891,.626-.0891,.2157,0,.4341,.0265,.6549,.0791,.2215,.053,.4052,.1173,.5517,.1926v.6504h-.0323c-.1551-.1145-.344-.2108-.5661-.2896s-.4399-.118-.6535-.118c-.2222,0-.4096,.0423-.5627,.1276-.1534,.0853-.2298,.2119-.2298,.3801,0,.1489,.0464,.2611,.139,.3364,.0908,.0757,.2373,.1372,.4403,.1844,.1121,.0261,.2377,.0519,.377,.0777,.139,.0258,.2549,.0499,.3474,.0712,.2827,.0647,.5005,.1758,.6535,.3333,.1534,.1596,.2298,.3708,.2298,.6339Z" style="fill:#4a4453;"/><path d="M21.905,35.8329c0,.2934-.042,.5613-.1262,.8038-.0839,.2428-.2026,.4482-.3556,.6164-.1424,.1596-.3102,.2831-.5032,.3704s-.3973,.131-.6129,.131c-.1875,0-.3574-.0206-.5094-.0616s-.3068-.1046-.4643-.1909v1.5141h-.6081v-4.9464h.6081v.3783c.1617-.1359,.3433-.2494,.5448-.3412,.2019-.0915,.4169-.1376,.6456-.1376,.4358,0,.7749,.1648,1.0174,.4936s.3639,.7856,.3639,1.37Zm-.6277,.0162c0-.4354-.0743-.7612-.2229-.9768-.1489-.2157-.3777-.3237-.6858-.3237-.1747,0-.3508,.0378-.5276,.1132-.1768,.0757-.346,.1747-.5077,.2979v2.0476c.1727,.0777,.3206,.1307,.4447,.1586,.1242,.0282,.2645,.042,.422,.042,.3388,0,.6029-.1142,.7928-.3429,.1895-.2284,.2844-.5672,.2844-1.0157Z" style="fill:#4a4453;"/><path d="M25.9922,35.8783c0,.5888-.1507,1.0535-.4526,1.394-.302,.3409-.7065,.5115-1.2131,.5115-.5115,0-.9173-.1706-1.2179-.5115-.301-.3405-.4513-.8052-.4513-1.394s.1503-1.0542,.4513-1.3961c.3006-.3419,.7065-.5128,1.2179-.5128,.5066,0,.9111,.1709,1.2131,.5128s.4526,.8073,.4526,1.3961Zm-.6274,0c0-.4681-.0915-.8159-.2752-1.0436-.183-.2274-.4375-.3412-.7632-.3412-.3299,0-.5864,.1138-.7684,.3412-.1823,.2277-.2734,.5754-.2734,1.0436,0,.4526,.0915,.7963,.2752,1.0301,.183,.2342,.4389,.3512,.7667,.3512,.3237,0,.5775-.1159,.7619-.3477s.2765-.5765,.2765-1.0336Z" style="fill:#4a4453;"/><path d="M29.2481,34.733h-.0323c-.0905-.0213-.1785-.0371-.2635-.0468-.0853-.0096-.1861-.0148-.3027-.0148-.1878,0-.3687,.0416-.5434,.1249-.1747,.0829-.3429,.1902-.5046,.3216v2.5655h-.6085v-3.6136h.6085v.5338c.2415-.194,.4544-.3316,.6387-.4124s.3728-.1214,.5648-.1214c.1056,0,.1823,.0028,.2298,.0083,.0475,.0052,.1183,.0155,.2133,.0306v.6243Z" style="fill:#4a4453;"/><path d="M31.7569,37.6511c-.1142,.0303-.239,.055-.3735,.0743-.1348,.0196-.2552,.0292-.3612,.0292-.3687,0-.6487-.0991-.841-.2975-.1919-.1985-.2879-.5166-.2879-.9545v-1.9217h-.4107v-.5111h.4107v-1.0384h.6081v1.0384h1.2554v.5111h-1.2554v1.6468c0,.1895,.0045,.3378,.0131,.4447,.0086,.1066,.0389,.2064,.0908,.2992,.0471,.0863,.1125,.1493,.1954,.1892,.0832,.0399,.2098,.0598,.3804,.0598,.0991,0,.2026-.0144,.3102-.0437,.108-.0292,.1857-.0533,.2332-.0729h.0323v.5469Z" style="fill:#4a4453;"/><path d="M38.1619,37.6834h-3.174v-4.8171h3.174v.5696h-2.5332v1.3197h2.5332v.5692h-2.5332v1.7892h2.5332v.5692Z" style="fill:#4a4453;"/><path d="M42.3169,37.6834h-.7667l-1.0253-1.3879-1.0322,1.3879h-.7082l1.4102-1.802-1.3975-1.8116h.7667l1.0191,1.3652,1.0222-1.3652h.7116l-1.4202,1.7793,1.4202,1.8343Z" style="fill:#4a4453;"/><path d="M45.7771,37.4571c-.2029,.097-.3955,.1723-.5778,.2263s-.3756,.0808-.5806,.0808c-.2607,0-.5001-.0382-.7182-.1149-.2181-.0764-.4045-.1923-.56-.3477-.1572-.1551-.2793-.3515-.3653-.5888-.0863-.237-.1293-.5142-.1293-.8313,0-.5909,.1623-1.0546,.4867-1.3909,.3247-.3364,.7536-.5049,1.286-.5049,.2071,0,.4107,.0292,.6102,.0874,.1995,.0585,.3818,.1297,.5483,.2136v.6762h-.0323c-.1857-.1445-.377-.2556-.5744-.3333s-.39-.1163-.5772-.1163c-.3453,0-.6177,.1159-.8172,.3477s-.2992,.572-.2992,1.0205c0,.4358,.0977,.7705,.2927,1.0047,.195,.2339,.4695,.3508,.8238,.3508,.1224,0,.2476-.0162,.3749-.0485s.2415-.0743,.3433-.1262c.0881-.0454,.1713-.0932,.249-.1438,.0777-.0509,.139-.0946,.1844-.131h.0323v.6697Z" style="fill:#4a4453;"/><path d="M49.6404,35.9395h-2.6622c0,.2222,.0337,.4158,.1004,.5809,.0667,.1648,.1582,.3003,.2745,.4059,.1121,.1035,.2456,.1813,.3997,.2329,.1541,.0519,.324,.0777,.5097,.0777,.2456,0,.4932-.0492,.7423-.1472s.4265-.1947,.5324-.2896h.0323v.6631c-.205,.0863-.4141,.1586-.6274,.217-.2139,.0581-.4382,.0874-.6735,.0874-.5992,0-1.0676-.1623-1.404-.487s-.5042-.7856-.5042-1.383c0-.5909,.161-1.0601,.4836-1.4071,.3219-.3474,.7464-.5211,1.2726-.5211,.4877,0,.8633,.1424,1.1275,.4272s.3962,.6889,.3962,1.2131v.3299Zm-.5916-.4657c-.0021-.3192-.0825-.5661-.2415-.7409-.1582-.1747-.399-.2621-.723-.2621-.3254,0-.5847,.096-.778,.2879-.1926,.1923-.302,.4303-.3281,.7151h2.0706Z" style="fill:#4a4453;"/><path d="M51.237,37.6834h-.6081v-5.0338h.6081v5.0338Z" style="fill:#4a4453;"/><path d="M53.115,37.6834h-.6081v-5.0338h.6081v5.0338Z" style="fill:#4a4453;"/><path d="M57.4027,35.9395h-2.6629c0,.2222,.0337,.4158,.1004,.5809,.0667,.1648,.1589,.3003,.2752,.4059,.1121,.1035,.2456,.1813,.3997,.2329,.1541,.0519,.324,.0777,.5091,.0777,.2463,0,.4939-.0492,.7429-.1472s.4265-.1947,.5318-.2896h.0323v.6631c-.2043,.0863-.4141,.1586-.6274,.217-.2133,.0581-.4375,.0874-.6728,.0874-.5999,0-1.0676-.1623-1.404-.487s-.5049-.7856-.5049-1.383c0-.5909,.1617-1.0601,.4836-1.4071,.3226-.3474,.7471-.5211,1.2733-.5211,.487,0,.8633,.1424,1.1275,.4272s.3962,.6889,.3962,1.2131v.3299Zm-.5923-.4657c-.0021-.3192-.0825-.5661-.2408-.7409-.1589-.1747-.3997-.2621-.723-.2621-.3261,0-.5854,.096-.778,.2879-.1933,.1923-.3027,.4303-.3288,.7151h2.0706Z" style="fill:#4a4453;"/><path d="M61.4056,37.6834h-.6081v-2.0575c0-.1661-.0096-.3219-.0289-.4674-.0199-.1455-.055-.2593-.1066-.3412-.0543-.0908-.1321-.1582-.2332-.2022-.1011-.0444-.2332-.0664-.3949-.0664-.1658,0-.3398,.0409-.5207,.1228-.1809,.0822-.355,.1868-.5207,.314v2.698h-.6081v-3.6136h.6081v.401c.1899-.1572,.3859-.2803,.5888-.3687,.2022-.0884,.4107-.1328,.6239-.1328,.3907,0,.6886,.1176,.8929,.3529,.205,.2349,.3075,.5737,.3075,1.0157v2.3454Z" style="fill:#4a4453;"/><path d="M65.3088,37.4571c-.2029,.097-.3955,.1723-.5778,.2263s-.3756,.0808-.5806,.0808c-.2607,0-.5001-.0382-.7182-.1149-.2181-.0764-.4045-.1923-.5593-.3477-.1575-.1551-.2793-.3515-.366-.5888-.086-.237-.1293-.5142-.1293-.8313,0-.5909,.1623-1.0546,.487-1.3909s.7533-.5049,1.2857-.5049c.2071,0,.4107,.0292,.6102,.0874,.1995,.0585,.3818,.1297,.5483,.2136v.6762h-.0323c-.1857-.1445-.377-.2556-.5744-.3333s-.39-.1163-.5772-.1163c-.3453,0-.6177,.1159-.8172,.3477s-.2992,.572-.2992,1.0205c0,.4358,.0977,.7705,.293,1.0047,.1947,.2339,.4692,.3508,.8234,.3508,.1224,0,.2476-.0162,.3749-.0485s.2415-.0743,.3433-.1262c.0881-.0454,.1713-.0932,.249-.1438,.0777-.0509,.139-.0946,.1844-.131h.0323v.6697Z" style="fill:#4a4453;"/><path d="M69.1728,35.9395h-2.6629c0,.2222,.0337,.4158,.1004,.5809,.0667,.1648,.1589,.3003,.2752,.4059,.1121,.1035,.2456,.1813,.3997,.2329,.1541,.0519,.324,.0777,.5091,.0777,.2463,0,.4939-.0492,.7429-.1472s.4265-.1947,.5318-.2896h.0323v.6631c-.2043,.0863-.4141,.1586-.6274,.217-.2133,.0581-.4375,.0874-.6728,.0874-.5999,0-1.0676-.1623-1.404-.487s-.5049-.7856-.5049-1.383c0-.5909,.1617-1.0601,.4836-1.4071,.3226-.3474,.7471-.5211,1.2733-.5211,.487,0,.8633,.1424,1.1275,.4272s.3962,.6889,.3962,1.2131v.3299Zm-.5923-.4657c-.0021-.3192-.0825-.5661-.2408-.7409-.1589-.1747-.3997-.2621-.723-.2621-.3261,0-.5854,.096-.778,.2879-.1933,.1923-.3027,.4303-.3288,.7151h2.0706Z" style="fill:#4a4453;"/><path d="M75.743,34.3223c0,.2133-.0371,.4114-.1114,.5937-.075,.182-.1789,.3402-.3123,.4736-.1665,.1661-.3625,.2906-.5888,.3739-.2263,.0829-.5125,.1245-.8571,.1245h-.6411v1.7954h-.6404v-4.8171h1.307c.2889,0,.5338,.0244,.7347,.0729,.2002,.0485,.3783,.1245,.5338,.228,.183,.1228,.3247,.2762,.4251,.4592,.1004,.1833,.1507,.4155,.1507,.6958Zm-.6666,.0162c0-.1661-.0289-.3106-.0874-.4337-.0585-.1228-.1465-.2232-.2655-.3006-.1032-.0671-.2215-.1149-.3543-.1441-.1321-.0292-.2999-.0437-.5029-.0437h-.6342v1.9248h.5407c.2587,0,.4692-.023,.6308-.0695s.293-.12,.3949-.2215c.1011-.1035,.1727-.2126,.2146-.3268s.0633-.2425,.0633-.3849Z" style="fill:#4a4453;"/><path d="M79.2444,37.6834h-.6047v-.3849c-.0543,.0365-.1266,.0877-.2188,.1537-.0915,.0657-.1802,.118-.2669,.1568-.1011,.0495-.2174,.0908-.3488,.1245-.1321,.0334-.2862,.0502-.463,.0502-.3254,0-.6019-.108-.8282-.3237s-.3398-.4905-.3398-.8248c0-.2741,.0592-.4956,.1768-.6649,.1169-.1692,.2848-.3027,.5029-.3997,.2201-.097,.4843-.1627,.7925-.1974,.3082-.0344,.6398-.0602,.9933-.0774v-.0939c0-.1379-.0241-.2525-.0729-.3429s-.1183-.1617-.2084-.2136c-.0867-.0495-.1899-.0829-.3109-.1001-.1204-.0172-.247-.0261-.3783-.0261-.1596,0-.3378,.0213-.5338,.0633s-.399,.1028-.6081,.1826h-.0323v-.6177c.1183-.0323,.2903-.0681,.5146-.107s.4451-.0581,.6631-.0581c.2545,0,.476,.021,.6645,.0629,.1885,.0423,.3522,.1138,.4905,.2153,.1355,.0991,.2394,.2277,.3102,.3849,.0715,.1575,.1066,.3526,.1066,.5858v2.452Zm-.6047-.8898v-1.0061c-.1857,.011-.4038,.0272-.6549,.0485-.2518,.0217-.4506,.053-.5971,.0939-.1747,.0499-.3157,.1269-.4238,.2315s-.1617,.2483-.1617,.4317c0,.2071,.0626,.3629,.1871,.4674,.1252,.1049,.3164,.1572,.573,.1572,.2133,0,.4086-.0416,.5854-.1249,.1768-.0829,.3405-.1826,.4919-.2992Z" style="fill:#4a4453;"/><path d="M82.73,34.733h-.0323c-.0908-.0213-.1782-.0371-.2635-.0468s-.1864-.0148-.3027-.0148c-.1878,0-.3687,.0416-.5434,.1249-.1747,.0829-.3426,.1902-.5049,.3216v2.5655h-.6081v-3.6136h.6081v.5338c.2415-.194,.4547-.3316,.6391-.4124s.3728-.1214,.5648-.1214c.1052,0,.1823,.0028,.2298,.0083,.0475,.0052,.1183,.0155,.2133,.0306v.6243Z" style="fill:#4a4453;"/><path d="M85.2388,37.6511c-.1142,.0303-.2387,.055-.3735,.0743-.1348,.0196-.2552,.0292-.3612,.0292-.3687,0-.6487-.0991-.8406-.2975s-.2882-.5166-.2882-.9545v-1.9217h-.4107v-.5111h.4107v-1.0384h.6081v1.0384h1.2554v.5111h-1.2554v1.6468c0,.1895,.0041,.3378,.0131,.4447,.0083,.1066,.0385,.2064,.0908,.2992,.0475,.0863,.1121,.1493,.1954,.1892s.2098,.0598,.3804,.0598c.0991,0,.2022-.0144,.3102-.0437s.1857-.0533,.2332-.0729h.0323v.5469Z" style="fill:#4a4453;"/><path d="M89.0539,37.6834h-.6081v-2.0575c0-.1661-.0096-.3219-.0289-.4674-.0199-.1455-.055-.2593-.1066-.3412-.0543-.0908-.1321-.1582-.2332-.2022-.1011-.0444-.2332-.0664-.3949-.0664-.1658,0-.3398,.0409-.5207,.1228-.1809,.0822-.355,.1868-.5207,.314v2.698h-.6081v-3.6136h.6081v.401c.1899-.1572,.3859-.2803,.5888-.3687,.2022-.0884,.4107-.1328,.6239-.1328,.3907,0,.6886,.1176,.8929,.3529,.205,.2349,.3075,.5737,.3075,1.0157v2.3454Z" style="fill:#4a4453;"/><path d="M93.3093,35.9395h-2.6622c0,.2222,.0337,.4158,.1004,.5809,.0667,.1648,.1582,.3003,.2745,.4059,.1121,.1035,.2456,.1813,.3997,.2329,.1541,.0519,.324,.0777,.5097,.0777,.2456,0,.4932-.0492,.7423-.1472s.4265-.1947,.5324-.2896h.0323v.6631c-.205,.0863-.4141,.1586-.6274,.217-.2139,.0581-.4382,.0874-.6735,.0874-.5992,0-1.0676-.1623-1.404-.487s-.5042-.7856-.5042-1.383c0-.5909,.161-1.0601,.4836-1.4071,.3219-.3474,.7464-.5211,1.2726-.5211,.4877,0,.8633,.1424,1.1275,.4272s.3962,.6889,.3962,1.2131v.3299Zm-.5916-.4657c-.0021-.3192-.0825-.5661-.2415-.7409-.1582-.1747-.399-.2621-.723-.2621-.3254,0-.5847,.096-.778,.2879-.1926,.1923-.302,.4303-.3281,.7151h2.0706Z" style="fill:#4a4453;"/><path d="M96.5459,34.733h-.0323c-.0908-.0213-.1782-.0371-.2635-.0468s-.1864-.0148-.3027-.0148c-.1878,0-.3687,.0416-.5434,.1249-.1747,.0829-.3426,.1902-.5049,.3216v2.5655h-.6081v-3.6136h.6081v.5338c.2415-.194,.4547-.3316,.6391-.4124s.3728-.1214,.5648-.1214c.1052,0,.1823,.0028,.2298,.0083,.0475,.0052,.1183,.0155,.2133,.0306v.6243Z" style="fill:#4a4453;"/><path d="M99.7598,36.6415c0,.3302-.1362,.6009-.4093,.8121-.2724,.2115-.6453,.3171-1.1178,.3171-.2669,0-.5125-.032-.7361-.0956-.2229-.0633-.41-.1331-.5606-.2084v-.6827h.0323c.1919,.1445,.4052,.2593,.6404,.3446,.2346,.0853,.4602,.1276,.6762,.1276,.2669,0,.476-.043,.6274-.1293,.1507-.086,.2263-.2222,.2263-.4076,0-.1424-.0406-.2501-.1231-.3233-.0819-.0736-.2394-.1359-.4719-.1878-.0867-.0193-.1988-.042-.3384-.0678-.139-.0261-.2655-.054-.3797-.0843-.3171-.0843-.5421-.2074-.6748-.3704-.1328-.1627-.1988-.3629-.1988-.6002,0-.1486,.031-.2889,.0922-.4203,.0612-.1317,.1548-.2494,.28-.3529,.1204-.1011,.2745-.1816,.4609-.2408,.1864-.0595,.3955-.0891,.626-.0891,.2153,0,.4341,.0265,.6549,.0791,.2215,.053,.4052,.1173,.5517,.1926v.6504h-.0323c-.1555-.1145-.344-.2108-.5661-.2896s-.4396-.118-.6535-.118c-.2222,0-.41,.0423-.5627,.1276-.1534,.0853-.2298,.2119-.2298,.3801,0,.1489,.0461,.2611,.139,.3364,.0908,.0757,.2373,.1372,.4403,.1844,.1121,.0261,.2373,.0519,.377,.0777,.139,.0258,.2545,.0499,.3474,.0712,.2827,.0647,.5008,.1758,.6535,.3333,.1534,.1596,.2298,.3708,.2298,.6339Z" style="fill:#4a4453;"/><path d="M103.7112,37.6834h-.6081v-2.0575c0-.1661-.0096-.3219-.0289-.4674-.0199-.1455-.055-.2593-.1066-.3412-.0543-.0908-.1321-.1582-.2332-.2022-.1011-.0444-.2332-.0664-.3949-.0664-.1658,0-.3398,.0409-.5207,.1228-.1809,.0822-.355,.1868-.5207,.314v2.698h-.6081v-5.0338h.6081v1.8212c.1899-.1572,.3859-.2803,.5888-.3687,.2022-.0884,.4107-.1328,.6239-.1328,.3907,0,.6886,.1176,.8929,.3529,.205,.2349,.3075,.5737,.3075,1.0157v2.3454Z" style="fill:#4a4453;"/><path d="M105.5953,33.4648h-.6858v-.6308h.6858v.6308Zm-.0385,4.2186h-.6081v-3.6136h.6081v3.6136Z" style="fill:#4a4453;"/><path d="M110,35.8329c0,.2934-.0427,.5613-.1266,.8038-.0839,.2428-.2029,.4482-.3556,.6164-.1424,.1596-.3102,.2831-.5029,.3704-.1933,.0874-.3976,.131-.6136,.131-.1871,0-.357-.0206-.5091-.0616s-.3068-.1046-.4643-.1909v1.5141h-.6081v-4.9464h.6081v.3783c.1617-.1359,.3433-.2494,.5448-.3412,.2016-.0915,.4169-.1376,.6459-.1376,.4354,0,.7746,.1648,1.0174,.4936,.2421,.3288,.3639,.7856,.3639,1.37Zm-.6281,.0162c0-.4354-.0743-.7612-.2229-.9768-.1493-.2157-.3777-.3237-.6858-.3237-.1747,0-.3508,.0378-.5276,.1132-.1768,.0757-.346,.1747-.5077,.2979v2.0476c.1727,.0777,.3206,.1307,.4451,.1586,.1238,.0282,.2642,.042,.4217,.042,.3384,0,.6026-.1142,.7925-.3429,.1899-.2284,.2848-.5672,.2848-1.0157Z" style="fill:#4a4453;"/></g><g><path d="M7.7771,18.3807h-2.6753v6.91H2.8923v-6.91H.217v-1.6572H7.7771v1.6572Z" style="fill:#4a4453;"/><path d="M14.2624,22.4428h-4.7411c.0306,.5063,.2236,.8936,.5782,1.1622,.355,.2683,.8774,.4028,1.5681,.4028,.4372,0,.8609-.0788,1.2716-.236,.4103-.1572,.7343-.3261,.9724-.5063h.2301v1.6627c-.4681,.1881-.9091,.3243-1.3235,.4086-.4141,.0843-.8726,.1266-1.3751,.1266-1.2964,0-2.2897-.2917-2.9804-.8747-.6903-.583-1.0356-1.4133-1.0356-2.4913,0-1.0663,.3271-1.911,.981-2.5346,.6542-.6232,1.5509-.9349,2.6901-.9349,1.0508,0,1.8412,.2655,2.3705,.7969s.7938,1.2957,.7938,2.2928v.7251Zm-2.0599-1.2142c-.0114-.4334-.1187-.7594-.3219-.9782-.2036-.2184-.5201-.3278-.9493-.3278-.399,0-.7271,.1035-.984,.3106s-.4007,.539-.4313,.9954h2.6866Z" style="fill:#4a4453;"/><path d="M28.1405,25.2908h-2.6983l-2.3306-3.1413h-1.0236v3.1413h-2.1979v-8.5672h3.7051c.5063,0,.9417,.0289,1.3063,.0863,.3642,.0574,.7054,.1823,1.0239,.3739,.3223,.1919,.5782,.4403,.768,.7453,.1899,.3047,.2848,.6876,.2848,1.1478,0,.6329-.1465,1.1488-.4399,1.5478s-.7127,.7306-1.2571,.9954l2.8593,3.6707Zm-3.4464-5.9435c0-.2146-.044-.399-.1321-.5524-.0884-.1534-.2397-.2741-.4547-.3625-.1496-.0612-.324-.0987-.5235-.1121s-.4317-.0199-.6962-.0199h-.7997v2.3069h.6786c.3529,0,.6484-.0172,.8864-.0516,.2377-.0344,.4372-.1132,.5981-.236,.1534-.1187,.2655-.2504,.3367-.3942,.0709-.1438,.1063-.3364,.1063-.5782Z" style="fill:#4a4453;"/><path d="M31.1752,17.9088h-2.1924v-1.5708h2.1924v1.5708Zm-.0578,7.3819h-2.0771v-6.4612h2.0771v6.4612Z" style="fill:#4a4453;"/><path d="M39.3496,25.2908h-2.0775v-3.2046c0-.2611-.0131-.5207-.0399-.7797s-.0729-.4495-.1383-.5723c-.077-.1421-.1892-.2456-.3364-.3109-.1479-.065-.3539-.0977-.6188-.0977-.1878,0-.3787,.0306-.5723,.0918-.1936,.0616-.4038,.1593-.6301,.2937v4.5797h-2.0771v-6.4612h2.0771v.7134c.3677-.2879,.7213-.5084,1.0601-.6618,.3391-.1534,.7154-.2301,1.1292-.2301,.6968,0,1.2424,.2033,1.6345,.6098,.3928,.4066,.5895,1.0147,.5895,1.824v4.2059Z" style="fill:#4a4453;"/><path d="M47.4157,24.5485c0,.606-.0863,1.1161-.259,1.5306-.1727,.4141-.4145,.7381-.7251,.9724-.3106,.2377-.6855,.4093-1.1247,.5149-.4392,.1052-.9349,.1582-1.4873,.1582-.4489,0-.8912-.0268-1.3263-.0805-.4354-.054-.8124-.119-1.1306-.1957v-1.6169h.2528c.2528,.0997,.561,.1909,.9249,.2734s.6893,.1238,.9768,.1238c.3828,0,.6941-.0358,.9335-.1066s.4224-.1716,.5486-.302c.1187-.1228,.205-.28,.2587-.4719,.0537-.1916,.0805-.4217,.0805-.6903v-.1207c-.249,.2033-.5249,.3642-.8276,.4833s-.6398,.1782-1.0116,.1782c-.9039,0-1.6011-.2721-2.0916-.8169-.4905-.5445-.7354-1.3731-.7354-2.4854,0-.5331,.0746-.9937,.2239-1.381,.1496-.3873,.3601-.7251,.6322-1.0126,.2528-.2686,.5641-.4778,.9338-.6274,.3694-.1496,.7481-.2243,1.135-.2243,.3484,0,.6655,.0413,.951,.1238,.2851,.0825,.5448,.1964,.7784,.3422l.075-.2875h2.0138v5.7189Zm-2.0771-1.2946v-2.9284c-.1187-.0499-.2642-.0891-.4365-.118-.172-.0289-.3271-.0433-.4647-.0433-.5438,0-.9514,.1565-1.2231,.4692s-.4072,.7488-.4072,1.3087c0,.6215,.1156,1.0549,.347,1.3005s.5751,.368,1.0305,.368c.2067,0,.4093-.0323,.6085-.0977,.1991-.065,.3808-.1513,.5455-.259Z" style="fill:#4a4453;"/><path d="M53.1311,24.6059c-.1114,.0846-.2494,.1861-.4145,.3051-.1648,.119-.3202,.2129-.4661,.282-.2033,.0918-.4141,.1599-.6329,.204-.2184,.0444-.4581,.0664-.7192,.0664-.6136,0-1.1275-.1899-1.5419-.5696-.4141-.3797-.6212-.865-.6212-1.4556,0-.4719,.1052-.8575,.3164-1.1567,.2108-.2992,.5101-.5348,.8974-.7075,.3835-.1727,.8592-.2955,1.4271-.3684,.5675-.0729,1.1564-.1266,1.7662-.161v-.0347c0-.3567-.1458-.6029-.4372-.7392-.2917-.1362-.7213-.2043-1.2888-.2043-.3415,0-.7058,.0605-1.0934,.1813-.3873,.1207-.6652,.2139-.8341,.2789h-.1899v-1.5591c.2188-.0574,.5744-.1255,1.0673-.2043,.4929-.0784,.9868-.118,1.4814-.118,1.1777,0,2.0283,.1813,2.5518,.5438s.7856,.9311,.7856,1.706v4.3957h-2.0541v-.6848Zm0-1.0054v-1.3421c-.28,.023-.5833,.0547-.9091,.0949-.3261,.0399-.5737,.0867-.7423,.1403-.2071,.065-.3653,.1596-.4747,.2841-.1094,.1242-.1641,.2875-.1641,.4901,0,.1338,.0114,.2428,.0344,.3271,.023,.0839,.0808,.1644,.1727,.2408,.0884,.0764,.1936,.1328,.3164,.1692,.1228,.0361,.3147,.0543,.5754,.0543,.2071,0,.4172-.042,.6301-.1259,.2129-.0843,.3997-.195,.561-.3329Z" style="fill:#4a4453;"/><path d="M70.237,25.2908h-2.1982v-5.7365l-1.5877,3.7226h-1.5247l-1.588-3.7226v5.7365h-2.083v-8.5672h2.5662l1.9275,4.298,1.9217-4.298h2.5662v8.5672Z" style="fill:#4a4453;"/><path d="M76.0783,24.6059c-.1114,.0846-.2494,.1861-.4145,.3051-.1648,.119-.3202,.2129-.4661,.282-.2033,.0918-.4141,.1599-.6329,.204-.2184,.0444-.4581,.0664-.7192,.0664-.6136,0-1.1275-.1899-1.5419-.5696-.4141-.3797-.6212-.865-.6212-1.4556,0-.4719,.1052-.8575,.3164-1.1567,.2108-.2992,.5101-.5348,.8974-.7075,.3835-.1727,.8592-.2955,1.4271-.3684,.5675-.0729,1.1564-.1266,1.7662-.161v-.0347c0-.3567-.1458-.6029-.4372-.7392-.2917-.1362-.7213-.2043-1.2888-.2043-.3415,0-.7058,.0605-1.0934,.1813-.3873,.1207-.6652,.2139-.8341,.2789h-.1899v-1.5591c.2188-.0574,.5744-.1255,1.0673-.2043,.4929-.0784,.9868-.118,1.4814-.118,1.1777,0,2.0283,.1813,2.5518,.5438s.7856,.9311,.7856,1.706v4.3957h-2.0541v-.6848Zm0-1.0054v-1.3421c-.28,.023-.5833,.0547-.9091,.0949-.3261,.0399-.5737,.0867-.7423,.1403-.2071,.065-.3653,.1596-.4747,.2841-.1094,.1242-.1641,.2875-.1641,.4901,0,.1338,.0114,.2428,.0344,.3271,.023,.0839,.0808,.1644,.1727,.2408,.0884,.0764,.1936,.1328,.3164,.1692,.1228,.0361,.3147,.0543,.5754,.0543,.2071,0,.4172-.042,.6301-.1259,.2129-.0843,.3997-.195,.561-.3329Z" style="fill:#4a4453;"/><path d="M81.9661,17.9088h-2.1924v-1.5708h2.1924v1.5708Zm-.0574,7.3819h-2.0771v-6.4612h2.0771v6.4612Z" style="fill:#4a4453;"/><path d="M89.9682,20.711v4.5797h-2.0771v-3.2277c0-.3147-.0076-.582-.0227-.8028-.0155-.2205-.0578-.3997-.1266-.5379-.0691-.1379-.1737-.2387-.3137-.302s-.3367-.0949-.5899-.0949c-.2033,0-.4007,.0413-.5926,.1235-.1916,.0825-.3642,.1699-.5176,.2621v4.5797h-2.0771v-6.4612h2.0771v.7134c.3563-.28,.6972-.4987,1.0229-.6559,.3254-.1572,.6855-.236,1.0804-.236,.4251,0,.8004,.0949,1.1261,.2848s.5802,.4688,.7643,.8372c.4138-.3491,.8159-.6232,1.2066-.8227s.7736-.2992,1.1491-.2992c.6968,0,1.2265,.2091,1.5884,.627,.3618,.4182,.5431,1.0205,.5431,1.8068v4.2059h-2.0771v-3.2277c0-.3185-.0069-.5871-.0203-.8055-.0134-.2188-.0547-.3969-.1235-.5352-.0654-.1379-.1689-.2387-.3109-.302-.1417-.0633-.3412-.0949-.5981-.0949-.1727,0-.3415,.0296-.5063,.0891-.1651,.0595-.3663,.1582-.6043,.2965Z" style="fill:#4a4453;"/><path d="M102.5892,22.0631c0,1.0625-.3096,1.8997-.929,2.5112-.6195,.6119-1.4893,.9177-2.6092,.9177s-1.9901-.3058-2.6092-.9177c-.6198-.6115-.9294-1.4487-.9294-2.5112,0-1.0704,.3116-1.9103,.9349-2.5201s1.491-.9149,2.6037-.9149c1.1275,0,1.9994,.3068,2.6151,.9208,.6153,.6136,.9232,1.4518,.9232,2.5143Zm-2.5487,1.5705c.1341-.1648,.2349-.3632,.302-.5954s.1008-.5531,.1008-.9638c0-.3797-.0347-.6979-.1035-.9552-.0691-.2569-.1651-.4619-.2879-.6157-.1228-.1572-.2703-.2683-.443-.3336-.1727-.065-.3587-.0977-.5579-.0977-.1995,0-.377,.0268-.5324,.0805-.1551,.0537-.3041,.161-.4458,.3223-.1266,.1496-.2274,.3546-.302,.6157-.075,.2607-.1121,.5888-.1121,.9837,0,.3529,.0323,.6587,.0977,.9177,.065,.259,.161,.4671,.2875,.6243,.1228,.1496,.2697,.259,.4403,.3281,.1706,.0688,.3653,.1035,.584,.1035,.1878,0,.3673-.0316,.5379-.0949s.3154-.1699,.4344-.3195Z" style="fill:#4a4453;"/><path d="M107.8792,24.6059c-.1114,.0846-.2494,.1861-.4145,.3051-.1648,.119-.3202,.2129-.4661,.282-.2033,.0918-.4141,.1599-.6329,.204-.2184,.0444-.4581,.0664-.7192,.0664-.6136,0-1.1275-.1899-1.5419-.5696-.4141-.3797-.6212-.865-.6212-1.4556,0-.4719,.1052-.8575,.3164-1.1567,.2108-.2992,.5101-.5348,.8974-.7075,.3835-.1727,.8592-.2955,1.4271-.3684,.5675-.0729,1.1564-.1266,1.7662-.161v-.0347c0-.3567-.1458-.6029-.4372-.7392-.2917-.1362-.7213-.2043-1.2888-.2043-.3415,0-.7058,.0605-1.0934,.1813-.3873,.1207-.6652,.2139-.8341,.2789h-.1899v-1.5591c.2188-.0574,.5744-.1255,1.0673-.2043,.4929-.0784,.9868-.118,1.4814-.118,1.1777,0,2.0283,.1813,2.5518,.5438s.7856,.9311,.7856,1.706v4.3957h-2.0541v-.6848Zm0-1.0054v-1.3421c-.28,.023-.5833,.0547-.9091,.0949-.3261,.0399-.5737,.0867-.7423,.1403-.2071,.065-.3653,.1596-.4747,.2841-.1094,.1242-.1641,.2875-.1641,.4901,0,.1338,.0114,.2428,.0344,.3271,.023,.0839,.0808,.1644,.1727,.2408,.0884,.0764,.1936,.1328,.3164,.1692,.1228,.0361,.3147,.0543,.5754,.0543,.2071,0,.4172-.042,.6301-.1259,.2129-.0843,.3997-.195,.561-.3329Z" style="fill:#4a4453;"/></g><rect y="29.4371" width="109.9649" height=".3969" style="fill:#f47b20;"/></g><g><path d="M2.339,3.0072H7.9613v1.4782h-1.8862v4.5074h-1.8495V4.4854h-1.8867v-1.4782Z" style="fill:#fff;"/><path d="M8.8227,8.9928V3.0072h3.0826c.5715,0,1.0082,.0493,1.3106,.1469,.3019,.0981,.5459,.2797,.731,.5454,.1846,.2651,.2772,.5886,.2772,.9695,0,.3321-.0704,.6183-.2123,.8593-.1414,.241-.3366,.4362-.5841,.5861-.158,.0951-.3743,.1741-.6495,.2365,.2204,.074,.3809,.1474,.4815,.2209,.0679,.0493,.1665,.154,.2958,.315,.1293,.1605,.2153,.2843,.2591,.3718l.8955,1.7342h-2.0899l-.9886-1.8293c-.1253-.2365-.2365-.3904-.3346-.4614-.1333-.0921-.2848-.1389-.4533-.1389h-.1635v2.4296h-1.8575Zm1.8575-3.5601h.7798c.0845,0,.248-.0272,.49-.082,.1228-.0241,.2224-.087,.3004-.1877,.0775-.1006,.1162-.2163,.1162-.3472,0-.1932-.0614-.3416-.1836-.4448-.1228-.1036-.3527-.1555-.6903-.1555h-.8125v1.217Z" style="fill:#fff;"/><path d="M18.9821,8.0047h-2.0995l-.2918,.9881h-1.8887l2.2499-5.9856h2.0175l2.2489,5.9856h-1.9365l-.2999-.9881Zm-.3834-1.294l-.6606-2.1518-.6541,2.1518h1.3146Z" style="fill:#fff;"/><path d="M21.8187,3.0072h1.7267l2.254,3.3115V3.0072h1.7433v5.9856h-1.7433l-2.2414-3.2864v3.2864h-1.7393V3.0072Z" style="fill:#fff;"/><path d="M28.4493,7.0125l1.7599-.1102c.0382,.2858,.1157,.5036,.2324,.653,.1907,.2425,.4629,.3638,.8166,.3638,.2641,0,.4679-.0619,.6108-.1862,.1429-.1238,.2143-.2672,.2143-.4307,0-.155-.0684-.2938-.2043-.4161-.1363-.1228-.4518-.2385-.9474-.3472-.811-.1826-1.3896-.4246-1.7353-.727-.3482-.3019-.5222-.6873-.5222-1.1552,0-.3079,.0891-.5982,.2672-.8719s.4463-.4885,.8045-.645c.3577-.1565,.8483-.235,1.4716-.235,.7647,0,1.3484,.1424,1.7498,.4266,.4015,.2848,.64,.7371,.7164,1.3579l-1.7433,.1016c-.0463-.2692-.1439-.4654-.2923-.5876-.1484-.1228-.3532-.1836-.6143-.1836-.2148,0-.3768,.0453-.486,.1368-.1087,.0911-.163,.2017-.163,.3326,0,.0951,.0448,.1811,.1348,.2571,.087,.079,.2938,.1524,.6203,.2204,.8085,.1746,1.3876,.3507,1.7373,.5288,.3497,.1786,.6042,.3995,.7637,.6636,.159,.2641,.2385,.5595,.2385,.886,0,.3839-.1062,.7376-.3185,1.0616s-.5087,.5695-.89,.7371c-.3809,.1675-.8613,.2511-1.4409,.2511-1.0183,0-1.7232-.1962-2.1151-.5881s-.6138-.89-.6656-1.4943Z" style="fill:#fff;"/><path d="M34.8021,3.0072h3.0745c.6696,0,1.1708,.1595,1.5043,.478s.5001,.7713,.5001,1.3594c0,.6042-.1816,1.0767-.5449,1.4168s-.9182,.5102-1.6638,.5102h-1.0128v2.2213h-1.8575V3.0072Zm1.8575,2.5518h.4533c.3567,0,.6073-.0619,.7512-.1857,.1444-.1238,.2168-.2822,.2168-.4759,0-.1877-.0629-.3466-.1882-.4775s-.3607-.1962-.7064-.1962h-.5268v1.3353Z" style="fill:#fff;"/><path d="M40.6161,6.0043c0-.9771,.2722-1.7383,.8166-2.2826s1.3021-.8166,2.2741-.8166c.9962,0,1.7639,.2677,2.3028,.8025s.8085,1.284,.8085,2.2474c0,.6998-.1177,1.2734-.3532,1.7212s-.5761,.7959-1.0208,1.045c-.4453,.249-.9997,.3738-1.6638,.3738-.6752,0-1.2336-.1077-1.6759-.3225-.4427-.2153-.801-.5554-1.0762-1.0208-.2747-.4654-.4121-1.048-.4121-1.7473Zm1.8495,.008c0,.6042,.1122,1.0384,.3366,1.3026,.2249,.2636,.5303,.396,.9167,.396,.3975,0,.7049-.1293,.9227-.3879s.3265-.7225,.3265-1.3921c0-.5635-.1132-.9755-.3406-1.2352-.2274-.2601-.5358-.3899-.9247-.3899-.3728,0-.6727,.1318-.8986,.396s-.3386,.7008-.3386,1.3106Z" style="fill:#fff;"/><path d="M47.8389,8.9928V3.0072h3.0826c.5715,0,1.0082,.0493,1.3106,.1469,.3019,.0981,.5459,.2797,.731,.5454,.1846,.2651,.2772,.5886,.2772,.9695,0,.3321-.0704,.6183-.2123,.8593-.1414,.241-.3366,.4362-.5841,.5861-.158,.0951-.3743,.1741-.6495,.2365,.2204,.074,.3809,.1474,.4815,.2209,.0679,.0493,.1665,.154,.2958,.315,.1293,.1605,.2153,.2843,.2591,.3718l.8955,1.7342h-2.0899l-.9886-1.8293c-.1253-.2365-.2365-.3904-.3346-.4614-.1333-.0921-.2848-.1389-.4533-.1389h-.1635v2.4296h-1.8575Zm1.8575-3.5601h.7798c.0845,0,.248-.0272,.49-.082,.1228-.0241,.2224-.087,.3004-.1877,.0775-.1006,.1162-.2163,.1162-.3472,0-.1932-.0614-.3416-.1836-.4448-.1228-.1036-.3527-.1555-.6903-.1555h-.8125v1.217Z" style="fill:#fff;"/><path d="M53.824,3.0072h5.6223v1.4782h-1.8862v4.5074h-1.8495V4.4854h-1.8867v-1.4782Z" style="fill:#fff;"/><path d="M63.1452,3.0072h1.854v5.9856h-1.854V3.0072Z" style="fill:#fff;"/><path d="M66.3385,3.0072h1.7267l2.254,3.3115V3.0072h1.7433v5.9856h-1.7433l-2.2414-3.2864v3.2864h-1.7393V3.0072Z" style="fill:#fff;"/><path d="M72.9686,7.0125l1.7599-.1102c.0382,.2858,.1157,.5036,.2324,.653,.1907,.2425,.4629,.3638,.8166,.3638,.2641,0,.4679-.0619,.6108-.1862,.1429-.1238,.2143-.2672,.2143-.4307,0-.155-.0684-.2938-.2043-.4161-.1363-.1228-.4518-.2385-.9474-.3472-.811-.1826-1.3896-.4246-1.7353-.727-.3482-.3019-.5222-.6873-.5222-1.1552,0-.3079,.0891-.5982,.2672-.8719s.4463-.4885,.8045-.645c.3577-.1565,.8483-.235,1.4716-.235,.7647,0,1.3484,.1424,1.7498,.4266,.4015,.2848,.64,.7371,.7164,1.3579l-1.7433,.1016c-.0463-.2692-.1439-.4654-.2923-.5876-.1484-.1228-.3532-.1836-.6143-.1836-.2148,0-.3768,.0453-.486,.1368-.1087,.0911-.163,.2017-.163,.3326,0,.0951,.0448,.1811,.1348,.2571,.087,.079,.2938,.1524,.6203,.2204,.8085,.1746,1.3876,.3507,1.7373,.5288,.3497,.1786,.6042,.3995,.7637,.6636,.159,.2641,.2385,.5595,.2385,.886,0,.3839-.1062,.7376-.3185,1.0616s-.5087,.5695-.89,.7371c-.3809,.1675-.8613,.2511-1.4409,.2511-1.0183,0-1.7232-.1962-2.1151-.5881s-.6138-.89-.6656-1.4943Z" style="fill:#fff;"/><path d="M79.4034,3.0072h1.854v5.9856h-1.854V3.0072Z" style="fill:#fff;"/><path d="M85.5933,6.8249v-1.2452h2.8582v2.5518c-.5474,.3728-1.0309,.6264-1.4515,.7612s-.9192,.2023-1.4963,.2023c-.7104,0-1.29-.1213-1.7373-.3633-.4478-.2425-.7949-.6032-1.0415-1.0822-.246-.479-.3693-1.0289-.3693-1.6492,0-.6535,.1348-1.2216,.404-1.7046,.2697-.4835,.6641-.8503,1.1843-1.1008,.4055-.1932,.9509-.2898,1.6371-.2898,.6611,0,1.1562,.0599,1.4842,.1796s.6002,.3059,.8166,.5575c.2163,.2521,.3788,.571,.4875,.9574l-1.7841,.3185c-.0735-.2259-.1977-.3985-.3733-.5187-.1756-.1197-.3995-.1796-.6717-.1796-.406,0-.729,.1409-.97,.4226-.2405,.2817-.3612,.7275-.3612,1.3373,0,.648,.1218,1.1104,.3653,1.3881,.244,.2777,.5831,.4166,1.0188,.4166,.2068,0,.4045-.0302,.5922-.0901s.4025-.1615,.645-.3059v-.5635h-1.2372Z" style="fill:#fff;"/><path d="M89.5578,3.0072h1.8495v2.0945h2.021V3.0072h1.8575v5.9856h-1.8575v-2.421h-2.021v2.421h-1.8495V3.0072Z" style="fill:#fff;"/><path d="M96.0938,3.0072h5.6223v1.4782h-1.8862v4.5074h-1.8495V4.4854h-1.8867v-1.4782Z" style="fill:#fff;"/><path d="M102.2309,7.0125l1.7599-.1102c.0382,.2858,.1157,.5036,.2324,.653,.1907,.2425,.4629,.3638,.8166,.3638,.2641,0,.4679-.0619,.6108-.1862,.1429-.1238,.2143-.2672,.2143-.4307,0-.155-.0684-.2938-.2043-.4161-.1363-.1228-.4518-.2385-.9474-.3472-.811-.1826-1.3896-.4246-1.7353-.727-.3482-.3019-.5222-.6873-.5222-1.1552,0-.3079,.0891-.5982,.2672-.8719s.4463-.4885,.8045-.645c.3577-.1565,.8483-.235,1.4716-.235,.7647,0,1.3484,.1424,1.7498,.4266,.4015,.2848,.64,.7371,.7164,1.3579l-1.7433,.1016c-.0463-.2692-.1439-.4654-.2923-.5876-.1484-.1228-.3532-.1836-.6143-.1836-.2148,0-.3768,.0453-.486,.1368-.1087,.0911-.163,.2017-.163,.3326,0,.0951,.0448,.1811,.1348,.2571,.087,.079,.2938,.1524,.6203,.2204,.8085,.1746,1.3876,.3507,1.7373,.5288,.3497,.1786,.6042,.3995,.7637,.6636,.159,.2641,.2385,.5595,.2385,.886,0,.3839-.1062,.7376-.3185,1.0616s-.5087,.5695-.89,.7371c-.3809,.1675-.8613,.2511-1.4409,.2511-1.0183,0-1.7232-.1962-2.1151-.5881s-.6138-.89-.6656-1.4943Z" style="fill:#fff;"/></g></g></g></svg>